# xmcd CD database file generated by Grip 3.3.1
# 
# Track frame offsets:
#       150
#       18048
#       36386
#       46667
#       69461
#       85747
#       102911
#       117770
#       134534
#       156086
#       168308
#       183099
# 
# Disc length: 2541 seconds
# 
# Revision: 1
# Processed by: cddbd v1.5.2PL0 Copyright (c) Steve Scherf et al.
# Submitted via: Grip 3.3.1
# 
DISCID=8d09eb0c
DTITLE=Jason and The Scorchers - Still Standing (Reissue)
DYEAR=1986
DGENRE=Country
TTITLE0=Golden Ball And Chain
TTITLE1=Crashin' Down
TTITLE2=Shotgun Blues
TTITLE3=Good Things Come To Those Who Wait
TTITLE4=My Heart Still Stands With You
TTITLE5=19th Nervous Breakdown
TTITLE6=Ocean Of Doubt
TTITLE7=Ghost Town
TTITLE8=Take Me To Your Promised Land
TTITLE9=Greetings From Nashville
TTITLE10=Route 66
TTITLE11=The Last Ride
EXTD=
EXTT0=
EXTT1=
EXTT2=
EXTT3=
EXTT4=
EXTT5=
EXTT6=
EXTT7=
EXTT8=
EXTT9=
EXTT10=
EXTT11=
PLAYORDER=
